#N canvas 73 31 1311 765 12;
#X declare -path mrpeach;
#X obj 160 473 dac~;
#X obj 145 268 catch~ outL;
#X obj 182 301 catch~ outR;
#X obj 798 654 throw~ outL;
#X obj 894 654 throw~ outR;
#X obj 269 581 vu 15 120 empty empty -1 -8 0 10 #404040 #000000 1 0
;
#X obj 148 516 env~ 16384 8192;
#X obj 148 580 vu 15 120 empty empty -1 -8 0 10 #404040 #000000 1 0
;
#X obj 269 516 env~ 16384 8192;
#X obj 268 547 - 92;
#X obj 147 547 - 92;
#X text 43 32 Sonic Kayak Sound Design;
#X text 43 54 by Timo Hoogland (c) 2022 \, www.timohoogland.com \,
@tmhglnd;
#N canvas 445 173 195 317 cpumeter 0;
#X obj 45 155 cputime;
#X obj 45 35 loadbang;
#X obj 45 127 t b b;
#X obj 44 216 * 0.1;
#X obj 45 184 int;
#X obj 45 66 tgl 15 0 empty empty empty 17 7 0 10 #fcfcfc #000000 #000000
0 1;
#X obj 43 249 outlet;
#X obj 45 99 metro 1000;
#X connect 0 0 4 0;
#X connect 1 0 5 0;
#X connect 2 0 0 0;
#X connect 2 1 0 1;
#X connect 3 0 6 0;
#X connect 4 0 3 0;
#X connect 5 0 7 0;
#X connect 7 0 2 0;
#X restore 276 433 pd cpumeter;
#X floatatom 277 464 5 0 0 0 - - - 0;
#X obj 798 587 tgl 15 0 empty empty empty 17 7 0 10 #fcfcfc #000000
#000000 0 1;
#X obj 342 267 loadbang;
#X text 43 83 various sound design reacting to input from the data
of the sensors and in different zones.;
#X text 43 146 tuning: all synths are tuned to a 5 Tone Equal Temperament
(5-TET/slendro) system with base of 432 Hz with the formula: [pow(2
\, ($f1-15)/5) * 432], f 41;
#X obj 1018 412 unpackOSC;
#X obj 957 34 declare -path mrpeach;
#X obj 352 169 expr pow(2 \, ($f1-15)/5) * 432;
#X floatatom 352 139 5 0 0 0 - - - 0;
#X floatatom 352 199 5 0 0 0 - - - 0;
#X obj 647 225 metro;
#X floatatom 682 101 5 0 0 0 - - - 0;
#X obj 682 130 t b f;
#X obj 682 193 /;
#X obj 682 37 loadbang;
#X msg 682 160 15000;
#X obj 647 195 tgl 15 0 empty empty empty 17 7 0 10 #fcfcfc #000000
#000000 0 1;
#X obj 647 255 i;
#X obj 647 285 + 1;
#X obj 991 655 throw~ outL;
#X obj 1092 654 throw~ outR;
#X msg 682 69 73;
#X text 956 62 OSC sensor format: temp \, temp_event \, air \, air+event
\, turbity \, turbity_event, f 42;
#X text 956 124 rise-begin / rise-end / fall-begin / fall-end;
#X text 954 109 temperature / air particulate matter / turbity;
#X text 954 221 air particulate matter: number of suspended particles
in air \, concentration of particles. Higher value is lower air quality
(more particles), f 33;
#X text 954 309 turbidity: the quality of the water. A higher value
means a lower water quality., f 33;
#X text 954 175 temperature: the temperature of the water, f 34;
#X obj 646 317 s mainBeat;
#X obj 713 290 s tempo;
#X obj 713 227 * 4;
#X floatatom 341 330 9 -60 6 0 - - - 0;
#X obj 341 360 expr pow(10 \, $f1/20);
#X floatatom 341 395 5 0 0 0 - - - 0;
#N canvas 80 90 659 642 sensor-router 0;
#X obj 52 127 unpack f s f s f s;
#X obj 76 197 select rise-begin rise-end fall-begin fall-end;
#X obj 75 259 tgl 15 0 empty empty empty 17 7 0 10 #fcfcfc #000000
#000000 0 1;
#X msg 75 224 1;
#X msg 154 223 0;
#X msg 233 223 1;
#X msg 315 224 0;
#X obj 233 256 tgl 15 0 empty empty empty 17 7 0 10 #fcfcfc #000000
#000000 0 1;
#X obj 75 290 send temp_event;
#X obj 50 329 send temp;
#X obj 52 52 inlet;
#X obj 52 89 route /sensors;
#X obj 140 332 select rise-begin rise-end fall-begin fall-end;
#X obj 139 394 tgl 15 0 empty empty empty 17 7 0 10 #fcfcfc #000000
#000000 0 1;
#X msg 139 359 1;
#X msg 218 358 0;
#X msg 297 358 1;
#X msg 379 359 0;
#X obj 297 391 tgl 15 0 empty empty empty 17 7 0 10 #fcfcfc #000000
#000000 0 1;
#X obj 269 428 select rise-begin rise-end fall-begin fall-end;
#X obj 268 490 tgl 15 0 empty empty empty 17 7 0 10 #fcfcfc #000000
#000000 0 1;
#X msg 268 455 1;
#X msg 347 454 0;
#X msg 426 454 1;
#X msg 508 455 0;
#X obj 426 487 tgl 15 0 empty empty empty 17 7 0 10 #fcfcfc #000000
#000000 0 1;
#X obj 139 425 send air_event;
#X obj 268 521 send turb_event;
#X obj 105 464 send air;
#X obj 243 560 send turb;
#X connect 0 0 9 0;
#X connect 0 1 1 0;
#X connect 0 2 28 0;
#X connect 0 3 12 0;
#X connect 0 4 29 0;
#X connect 0 5 19 0;
#X connect 1 0 3 0;
#X connect 1 1 4 0;
#X connect 1 2 5 0;
#X connect 1 3 6 0;
#X connect 2 0 8 0;
#X connect 3 0 2 0;
#X connect 4 0 2 0;
#X connect 5 0 7 0;
#X connect 6 0 7 0;
#X connect 7 0 8 0;
#X connect 10 0 11 0;
#X connect 11 0 0 0;
#X connect 12 0 14 0;
#X connect 12 1 15 0;
#X connect 12 2 16 0;
#X connect 12 3 17 0;
#X connect 13 0 26 0;
#X connect 14 0 13 0;
#X connect 15 0 13 0;
#X connect 16 0 18 0;
#X connect 17 0 18 0;
#X connect 18 0 26 0;
#X connect 19 0 21 0;
#X connect 19 1 22 0;
#X connect 19 2 23 0;
#X connect 19 3 24 0;
#X connect 20 0 27 0;
#X connect 21 0 20 0;
#X connect 22 0 20 0;
#X connect 23 0 25 0;
#X connect 24 0 25 0;
#X connect 25 0 27 0;
#X restore 959 453 pd sensor-router;
#X msg 647 68 1;
#X obj 991 614 zone-percussion;
#X obj 991 582 tgl 15 0 empty empty empty 17 7 0 10 #fcfcfc #000000
#000000 0 1;
#X obj 798 616 zone-4sine;
#X obj 599 615 zone-arp;
#X obj 599 656 throw~ outL;
#X obj 695 656 throw~ outR;
#X obj 599 586 tgl 15 0 empty empty empty 17 7 0 10 #fcfcfc #000000
#000000 0 1;
#X obj 401 618 zone-string;
#X obj 399 657 throw~ outL;
#X obj 498 657 throw~ outR;
#X obj 401 587 tgl 15 0 empty empty empty 17 7 0 10 #fcfcfc #000000
#000000 0 1;
#X obj 146 338 squash~;
#X obj 184 372 squash~;
#X obj 799 551 r turb_event;
#X obj 991 549 loadbang;
#X obj 401 552 r air_event;
#X obj 600 550 r temp_event;
#X obj 775 290 s freq;
#X obj 775 259 expr 1000/$f1;
#X text 769 99 the main metro for all rhythms and sequences, f 17
;
#X obj 959 380 inlet;
#X obj 402 434 r temp;
#X obj 489 434 r air;
#X obj 574 434 r turb;
#X floatatom 402 469 5 0 0 0 - - - 0;
#X floatatom 489 468 5 0 0 0 - - - 0;
#X floatatom 574 469 5 0 0 0 - - - 0;
#X obj 47 300 switch~;
#X obj 48 267 inlet;
#X obj 124 424 *~;
#X obj 171 425 *~;
#X obj 1018 381 udpreceive 8889;
#X floatatom 272 303 5 0 0 0 - - - 0;
#X msg 271 272 1;
#X msg 342 300 -3;
#X obj 402 502 print TEMP;
#X obj 489 501 print AIR;
#X obj 574 500 print TURB;
#X connect 1 0 61 0;
#X connect 2 0 62 0;
#X connect 6 0 10 0;
#X connect 8 0 9 0;
#X connect 9 0 5 0;
#X connect 10 0 7 0;
#X connect 13 0 14 0;
#X connect 15 0 52 0;
#X connect 16 0 84 0;
#X connect 16 0 83 0;
#X connect 19 0 48 0;
#X connect 21 0 23 0;
#X connect 22 0 21 0;
#X connect 24 0 31 0;
#X connect 25 0 26 0;
#X connect 26 0 29 0;
#X connect 26 1 27 1;
#X connect 27 0 24 1;
#X connect 27 0 44 0;
#X connect 28 0 35 0;
#X connect 28 0 49 0;
#X connect 29 0 27 0;
#X connect 30 0 24 0;
#X connect 31 0 32 0;
#X connect 32 0 31 1;
#X connect 32 0 42 0;
#X connect 35 0 25 0;
#X connect 44 0 43 0;
#X connect 44 0 68 0;
#X connect 45 0 46 0;
#X connect 46 0 47 0;
#X connect 46 0 80 1;
#X connect 46 0 79 1;
#X connect 49 0 30 0;
#X connect 50 0 33 0;
#X connect 50 1 34 0;
#X connect 51 0 50 0;
#X connect 52 0 3 0;
#X connect 52 1 4 0;
#X connect 53 0 54 0;
#X connect 53 1 55 0;
#X connect 56 0 53 0;
#X connect 57 0 58 0;
#X connect 57 1 59 0;
#X connect 60 0 57 0;
#X connect 61 0 6 0;
#X connect 61 0 79 0;
#X connect 62 0 8 0;
#X connect 62 0 80 0;
#X connect 63 0 15 0;
#X connect 64 0 51 0;
#X connect 65 0 60 0;
#X connect 66 0 56 0;
#X connect 68 0 67 0;
#X connect 70 0 48 0;
#X connect 71 0 74 0;
#X connect 72 0 75 0;
#X connect 73 0 76 0;
#X connect 74 0 85 0;
#X connect 75 0 86 0;
#X connect 76 0 87 0;
#X connect 78 0 77 0;
#X connect 79 0 0 0;
#X connect 80 0 0 1;
#X connect 81 0 19 0;
#X connect 82 0 62 1;
#X connect 82 0 61 1;
#X connect 83 0 82 0;
#X connect 84 0 45 0;
