#N canvas 443 112 888 725 10;
#X declare -path mrpeach;
#X obj 323 532 +~;
#X obj 322 636 dac~;
#X text 8 7 sonic kayak zone mixer;
#X msg 299 48 port 8888;
#X obj 298 77 udpreceive 8888;
#X obj 299 102 unpackOSC;
#X obj 327 137 route /entered-zone /left-zone;
#X obj 326 164 unpack s;
#X obj 414 164 unpack s;
#X obj 611 377 loadbang;
#X msg 611 401 1;
#X msg 643 423 0;
#X msg 43 107 \; pd dsp 1;
#X obj 70 32 loadbang;
#X obj 368 532 +~;
#X msg 511 296 1;
#X text 618 352 startup sound;
#X obj 71 220 zone-gps-sense;
#N canvas 0 50 450 250 (subpatch) 0;
#X array out 100 float 3;
#A 0 0 0 0 0 0 0 0 0 0 0 0 0 0 0 0 0 0 0 0 0 0 0 0 0 0 0 0 0 0 0 0
0 0 0 0 0 0 0 0 0 0 0 0 0 0 0 0 0 0 0 0 0 0 0 0 0 0 0 0 0 0 0 0 0 0
0 0 0 0 0 0 0 0 0 0 0 0 0 0 0 0 0 0 0 0 0 0 0 0 0 0 0 0 0 0 0 0 0 0
0;
#X coords 0 1 99 -1 200 140 1;
#X restore 952 49 graph;
#X text 137 61 continuously playing things, f 13;
#X text 296 28 input from swamp zone system;
#X msg 358 281 0;
#X msg 327 280 1;
#X obj 327 351 loop;
#X obj 362 306 loadbang;
#X obj 611 465 loop;
#X obj 676 423 loadbang;
#X msg 678 443 _ ../sound/kayaks.wav;
#X obj 322 599 *~;
#X obj 368 599 *~;
#X floatatom 410 575 5 0 0 0 - - - 0;
#X obj 409 531 loadbang;
#X msg 409 553 4;
#X obj 511 348 +~;
#X obj 537 348 +~;
#X obj 550 315 loadbang;
#X obj 511 315 1shot;
#X msg 1035 230 1;
#X msg 1068 231 1;
#X msg 1065 279 _ ../sound/lz7.wav;
#X msg 1065 300 _ ../sound/lz8.wav;
#X msg 1069 325 _ ../sound/lz9.wav;
#X msg 1064 350 _ ../sound/lz10.wav;
#X msg 616 315 _ ../sound/duck.wav;
#X msg 512 255 1;
#X obj 551 274 loadbang;
#X obj 512 274 1shot;
#X msg 617 274 _ ../sound/pulse_fat.wav;
#X msg 364 325 _ ../sound/welcome.wav;
#X obj 40 277 zone-hydrophone;
#X obj 326 218 select start;
#X obj 358 246 select start;
#X obj 511 231 select duck hydro;
#X obj 624 50 declare -path mrpeach;
#X obj 40 251 tgl 15 0 empty empty empty 17 7 0 10 #fcfcfc #000000
#000000 0 1;
#X obj 643 401 delay 10000;
#X msg 71 164 0;
#X obj 71 194 tgl 15 0 empty empty empty 17 7 0 10 #fcfcfc #000000
#000000 0 1;
#X obj 139 161 soundscape/_main-soundscape;
#X obj 139 136 tgl 15 0 empty empty empty 17 7 0 10 #fcfcfc #000000
#000000 0 1;
#X msg 139 107 1;
#X msg 39 164 1;
#X obj 70 59 t b b b;
#X obj 41 313 dac~;
#X connect 0 0 28 0;
#X connect 3 0 4 0;
#X connect 4 0 5 0;
#X connect 5 0 6 0;
#X connect 5 0 58 1;
#X connect 6 0 7 0;
#X connect 6 1 8 0;
#X connect 7 0 50 0;
#X connect 7 0 52 0;
#X connect 8 0 51 0;
#X connect 9 0 10 0;
#X connect 9 0 55 0;
#X connect 10 0 25 0;
#X connect 11 0 25 0;
#X connect 13 0 62 0;
#X connect 14 0 29 0;
#X connect 15 0 36 0;
#X connect 21 0 23 0;
#X connect 22 0 23 0;
#X connect 23 0 0 0;
#X connect 23 1 14 0;
#X connect 24 0 48 0;
#X connect 25 0 0 0;
#X connect 25 1 14 0;
#X connect 26 0 27 0;
#X connect 27 0 25 1;
#X connect 28 0 1 0;
#X connect 29 0 1 1;
#X connect 30 0 28 1;
#X connect 30 0 29 1;
#X connect 31 0 32 0;
#X connect 32 0 30 0;
#X connect 33 0 0 0;
#X connect 34 0 14 0;
#X connect 35 0 43 0;
#X connect 36 0 33 0;
#X connect 36 1 34 0;
#X connect 43 0 36 1;
#X connect 44 0 46 0;
#X connect 45 0 47 0;
#X connect 46 0 33 0;
#X connect 46 1 34 0;
#X connect 47 0 46 1;
#X connect 48 0 23 1;
#X connect 49 0 63 0;
#X connect 49 1 63 1;
#X connect 50 0 22 0;
#X connect 51 0 21 0;
#X connect 52 0 44 0;
#X connect 52 1 15 0;
#X connect 54 0 49 0;
#X connect 55 0 11 0;
#X connect 56 0 57 0;
#X connect 57 0 17 0;
#X connect 59 0 58 0;
#X connect 60 0 59 0;
#X connect 61 0 54 0;
#X connect 62 0 12 0;
#X connect 62 1 56 0;
#X connect 62 1 61 0;
#X connect 62 2 60 0;
